<svg xmlns="http://www.w3.org/2000/svg" width="20" height="22" viewBox="0 0 20 22" fill="none">
                                     <path d="M17.9165 3.56055H16.111V4.74742H17.7777V17.803H2.22209V4.74742H3.88876V3.56055H2.0832C1.95334 3.56287 1.82517 3.59249 1.70602 3.64773C1.58687 3.70296 1.47908 3.78273 1.38879 3.88248C1.29851 3.98222 1.22751 4.09999 1.17984 4.22905C1.13217 4.35811 1.10878 4.49594 1.11098 4.63466V17.9157C1.10878 18.0544 1.13217 18.1923 1.17984 18.3213C1.22751 18.4504 1.29851 18.5682 1.38879 18.6679C1.47908 18.7677 1.58687 18.8474 1.70602 18.9027C1.82517 18.9579 1.95334 18.9875 2.0832 18.9898H17.9165C18.0464 18.9875 18.1746 18.9579 18.2937 18.9027C18.4129 18.8474 18.5207 18.7677 18.611 18.6679C18.7012 18.5682 18.7722 18.4504 18.8199 18.3213C18.8676 18.1923 18.891 18.0544 18.8888 17.9157V4.63466C18.891 4.49594 18.8676 4.35811 18.8199 4.22905C18.7722 4.09999 18.7012 3.98222 18.611 3.88248C18.5207 3.78273 18.4129 3.70296 18.2937 3.64773C18.1746 3.59249 18.0464 3.56287 17.9165 3.56055Z" fill="#0e7d93"></path>
                                     <path d="M4.44434 8.30811H5.55545V9.49497H4.44434V8.30811Z" fill="#0e7d93"></path>
                                     <path d="M7.77783 8.30811H8.88894V9.49497H7.77783V8.30811Z" fill="#0e7d93"></path>
                                     <path d="M11.1113 8.30811H12.2224V9.49497H11.1113V8.30811Z" fill="#0e7d93"></path>
                                     <path d="M14.4443 8.30811H15.5554V9.49497H14.4443V8.30811Z" fill="#0e7d93"></path>
                                     <path d="M4.44434 11.2751H5.55545V12.462H4.44434V11.2751Z" fill="#0e7d93"></path>
                                     <path d="M11.1113 11.2751H12.2224V12.462H11.1113V11.2751Z" fill="#0e7d93"></path>
                                     <path d="M14.4443 11.2751H15.5554V12.462H14.4443V11.2751Z" fill="#0e7d93"></path>
                                     <path d="M4.44434 14.2424H5.55545V15.4293H4.44434V14.2424Z" fill="#0e7d93"></path>
                                     <path d="M7.77783 14.2424H8.88894V15.4293H7.77783V14.2424Z" fill="#0e7d93"></path>
                                     <path d="M11.1113 14.2424H12.2224V15.4293H11.1113V14.2424Z" fill="#0e7d93"></path>
                                     <path d="M14.4443 14.2424H15.5554V15.4293H14.4443V14.2424Z" fill="#0e7d93"></path>
                                     <path d="M5.55556 5.93424C5.7029 5.93424 5.84421 5.87172 5.94839 5.76043C6.05258 5.64914 6.11111 5.4982 6.11111 5.34081V1.7802C6.11111 1.62281 6.05258 1.47187 5.94839 1.36058C5.84421 1.24929 5.7029 1.18677 5.55556 1.18677C5.40821 1.18677 5.26691 1.24929 5.16272 1.36058C5.05853 1.47187 5 1.62281 5 1.7802V5.34081C5 5.4982 5.05853 5.64914 5.16272 5.76043C5.26691 5.87172 5.40821 5.93424 5.55556 5.93424Z" fill="#0e7d93"></path>
                                     <path d="M14.4442 5.93424C14.5916 5.93424 14.7329 5.87172 14.8371 5.76043C14.9413 5.64914 14.9998 5.4982 14.9998 5.34081V1.7802C14.9998 1.62281 14.9413 1.47187 14.8371 1.36058C14.7329 1.24929 14.5916 1.18677 14.4442 1.18677C14.2969 1.18677 14.1556 1.24929 14.0514 1.36058C13.9472 1.47187 13.8887 1.62281 13.8887 1.7802V5.34081C13.8887 5.4982 13.9472 5.64914 14.0514 5.76043C14.1556 5.87172 14.2969 5.93424 14.4442 5.93424Z" fill="#0e7d93"></path>
                                     <path d="M7.22217 3.56055H12.7777V4.74742H7.22217V3.56055Z" fill="#0e7d93"></path>
                                     <path d="M8 11H9.11111V12.1869H8V11Z" fill="#0e7d93"></path>
                                  </svg>